<svg id="图层_1" data-name="图层 1" xmlns="http://www.w3.org/2000/svg" xmlns:xlink="http://www.w3.org/1999/xlink" viewBox="0 0 52 52"><defs><style>.cls-1{fill:none;}.cls-2{fill:#303c55;}.cls-3{clip-path:url(#clip-path);}</style><clipPath id="clip-path"><rect class="cls-1" x="11.18" y="11.12" width="29.64" height="29.76"/></clipPath></defs><title>安全资源池icon</title><path class="cls-2" d="M26,52A26,26,0,1,1,52,26,26,26,0,0,1,26,52ZM26,2A24,24,0,1,0,50,26,24,24,0,0,0,26,2Z"/><g class="cls-3"><path class="cls-2" d="M39.76,11.6A19.59,19.59,0,0,0,21.5,16.84l-.32.32H21.1l-.39.4a.5.5,0,0,1-.56.16,6.52,6.52,0,0,0-3.73-.32,6.61,6.61,0,0,0-3.26,1.74h-.07a6.47,6.47,0,0,0-1.83,3.66,6.35,6.35,0,0,0,.08,2.38.79.79,0,0,0,1.19.55l.87-.47a8.21,8.21,0,0,1,2.54-.56h.24l.24.16a.52.52,0,0,1,.08.4,24.87,24.87,0,0,0-.56,2.7c-.08.79-.16,1.51-.16,2.22a.84.84,0,0,0,.24.56l4.85,5.32a.71.71,0,0,0,.55.23l2.3-.15,2.78-.56h.16l.32.16a.47.47,0,0,1,.16.32,7.64,7.64,0,0,1-.56,2.62l-.47.87a.8.8,0,0,0-.07.72.82.82,0,0,0,.54.47l1.35.08H29A6.67,6.67,0,0,0,32.62,39h.08a6.68,6.68,0,0,0,1.51-7.06.48.48,0,0,1,.07-.64l.8-.79a19.69,19.69,0,0,0,5.24-18.34.81.81,0,0,0-.56-.56Zm-1.39,9.79a17.54,17.54,0,0,1-4.66,8L33,30a2,2,0,0,0-.54,2.17,5,5,0,0,1-1.09,5.28H31.3a5,5,0,0,1-2.63,1.39H28a9.14,9.14,0,0,0,.7-3.1,2,2,0,0,0-.54-1.45,2.07,2.07,0,0,0-1.4-.65H26l-2.49.47-1.7.16-4.35-4.35a12.5,12.5,0,0,1,.16-1.71,21.53,21.53,0,0,1,.54-2.48A2,2,0,0,0,18,24.19a2,2,0,0,0-1.17-.78H16.1a9.84,9.84,0,0,0-3,.7,4.13,4.13,0,0,1,.08-.78,4.76,4.76,0,0,1,1.32-2.63h.07A4.8,4.8,0,0,1,17,19.38a4.93,4.93,0,0,1,2.79.23,2,2,0,0,0,2.25-.54l.31-.31.39-.31a17.76,17.76,0,0,1,7.91-4.58,18,18,0,0,1,8-.55,17.75,17.75,0,0,1-.31,8.07ZM16.82,34.47a.8.8,0,0,0-1.11,0L11.5,38.68a.78.78,0,0,0-.3.8.8.8,0,0,0,.6.61.81.81,0,0,0,.81-.3l4.21-4.21a.8.8,0,0,0,0-1.11Zm-4.77,1.35a.8.8,0,0,0,.56-.24l2.14-2.14a.79.79,0,0,0-.07-1,.8.8,0,0,0-1-.08L11.5,34.47a.78.78,0,0,0-.17.86.81.81,0,0,0,.72.49Zm5.8.71-2.14,2.15a.78.78,0,0,0-.3.8.8.8,0,0,0,.6.61.81.81,0,0,0,.81-.3L19,37.64a.78.78,0,0,0-.07-1,.8.8,0,0,0-1-.08Zm0,0"/></g><path class="cls-2" d="M31.11,16.21A4.76,4.76,0,1,0,35.87,21a4.77,4.77,0,0,0-4.76-4.76Zm0,7.65A2.89,2.89,0,1,1,34,21a2.89,2.89,0,0,1-2.89,2.89Zm0,.29"/></svg>